<?xml version="1.0" encoding="UTF-8" standalone="no"?>
<!DOCTYPE svg PUBLIC "-//W3C//DTD SVG 1.1//EN" "http://www.w3.org/Graphics/SVG/1.1/DTD/svg11.dtd">
<svg width="100%" height="100%" viewBox="0 0 745 179" version="1.1" xmlns="http://www.w3.org/2000/svg" xmlns:xlink="http://www.w3.org/1999/xlink" xml:space="preserve" xmlns:serif="http://www.serif.com/" style="fill-rule:evenodd;clip-rule:evenodd;stroke-linejoin:round;stroke-miterlimit:2;">
    <rect id="ArtBoard1" x="0" y="0" width="744.719" height="178.293" style="fill:none;"/>
    <clipPath id="_clip1">
        <rect id="ArtBoard11" serif:id="ArtBoard1" x="0" y="0" width="744.719" height="178.293"/>
    </clipPath>
    <g clip-path="url(#_clip1)">
        <g id="logo" transform="matrix(1,0,0,1,-0.651692,-0.529208)">
            <g id="_-3389c8ff" serif:id="#3389c8ff" transform="matrix(1.04591,0,0,0.994915,-6.98669,0.60714)">
                <path id="path3377" d="M9.46,128.09l0.88,0.18c2.96,7.67 9.41,13.25 12.53,20.89c7.55,12.89 22.6,23.06 37.99,20.63c7.31,-1.61 12.51,-6.501 19.1,-10.8c-4.65,6.16 -11.94,9.84 -18.67,13.32c-15.09,3.08 -31.806,-0.578 -46.966,-1.055c-3.57,-14.22 -2.824,-28.695 -4.864,-43.165Z" style="fill:rgb(51,137,200);fill-rule:nonzero;"/>
            </g>
            <g id="_-72a7cdff" serif:id="#72a7cdff" transform="matrix(1.04591,0,0,0.994915,-6.98669,0.60714)">
                <path id="path3361" d="M80.45,48.51c6.71,-8.81 13.85,-19.71 25.67,-21.51c4.94,1.33 6.43,8.37 4.79,12.71c-6.22,10.9 -11.6,22.45 -19.93,31.96c-1.41,-0.3 -2.76,-0.83 -4.07,-1.4c-3.73,-2.79 -7.53,-5.49 -11.36,-8.13c-2.82,-5.21 2.34,-9.58 4.9,-13.63Z" style="fill:rgb(114,167,205);fill-rule:nonzero;"/>
                <path id="path3363" d="M88.34,126.37c6.98,-7.65 6.79,-18.59 9.52,-28c6.25,8.73 8.41,20.74 4.7,30.95c-3.86,12.15 -12.77,21.94 -22.6,29.67c-5.923,3.976 -11.636,9.46 -19.1,10.8c-15.39,2.43 -28.443,-5.908 -37.228,-18.455c-4.862,-7.105 -11.809,-15.073 -12.352,-23.119c5.16,1.36 8.402,4.658 13.522,6.178c10.07,4.35 20.468,3.996 31.108,4.346c11.4,-1.75 24.2,-3.35 32.43,-12.37Z" style="fill:rgb(114,167,205);fill-rule:nonzero;"/>
            </g>
            <path id="path3346" d="M138.896,11.074c16.003,-0.339 30.082,19.57 33.136,33.678c2.143,20.128 0.903,26.509 -7.219,45.22c-6.579,9.362 -17.999,17.877 -30.372,18.862c-0.722,-7.78 8.691,-8.855 13.816,-12.218c15.354,-11.859 16.316,-32.115 13.785,-49.745c-2.845,-12.616 -13.293,-23.53 -26.461,-26.893c-4.916,-1.741 0.094,-7.85 3.315,-8.904Z" style="fill-rule:nonzero;"/>
            <path id="path3348" d="M130.466,28.126c9.853,0 18.335,7.283 22.173,15.551c7.876,18.386 -4.162,43.03 -25.572,46.204c-1.401,-6.716 7.677,-6.189 11.693,-9.263c11.714,-8.228 12.311,-25.858 4.602,-36.782c-3.88,-6.278 -11.892,-7.611 -18.136,-10.815c0.293,-2.338 3.044,-4.039 5.24,-4.895Z" style="fill-rule:nonzero;"/>
            <path id="path3350" d="M128.291,46.025c16.4,1.98 14.036,26.733 -1.234,29.081c0.02,-2.079 1.474,-3.482 3.284,-4.397c6.829,-3.154 7.196,-13.362 2.782,-18.326c-2.144,-1.533 -10.585,-4.527 -4.832,-6.358Z" style="fill-rule:nonzero;"/>
            <g id="_-0866aaff" serif:id="#0866aaff" transform="matrix(1.04591,0,0,0.994915,-6.98669,0.60714)">
                <path id="path3358" d="M100.72,17.69c5.14,-4.09 10.32,2.03 10.66,7.12c2.98,19.66 -0.86,40.11 -9.87,57.78c-5.37,-1.94 -9.41,-8.78 -14.6,-12.32c1.31,0.57 2.66,1.1 4.07,1.4c8.33,-9.51 13.71,-21.06 19.93,-31.96c1.64,-4.34 0.15,-11.38 -4.79,-12.71c-11.82,1.8 -18.96,12.7 -25.67,21.51c-2.56,4.05 -7.72,8.42 -4.9,13.63c-4.3,-2.44 -8.51,-5.06 -12.35,-8.21c11.14,-13.25 22.91,-26.72 37.52,-36.24Z" style="fill:rgb(8,102,170);fill-rule:nonzero;"/>
            </g>
            <g id="_-5d9ac6ff" serif:id="#5d9ac6ff" transform="matrix(1.04591,0,0,0.994915,-6.98669,0.60714)">
                <path id="path3366" d="M43.35,64.28c5.77,-3.24 13.434,-0.087 19.094,1.493c9.37,4.6 16.946,11.327 23.736,19.347c-2.32,1.59 -5.21,-0.3 -7.75,-0.43c-19.44,-3.6 -38.87,7.06 -50.7,22.04c-5.7,5.51 -9.81,12.54 -16.03,17.5c-2.82,-23.59 8.67,-50.63 31.65,-59.95Z" style="fill:rgb(93,154,198);fill-rule:nonzero;"/>
            </g>
            <g id="_-ecc91aff" serif:id="#ecc91aff" transform="matrix(1.04591,0,0,0.994915,-6.98669,0.60714)">
                <path id="path3369" d="M64.37,88.11c8.24,0.51 17.39,-0.38 24.67,4.08c1.19,10.72 -0.95,21.76 -4.98,31.7c-5.4,8.88 -16.89,10.44 -26.35,11.33c1.65,-11.95 6.36,-23.72 4.77,-35.97c-0.92,-3.87 -4.69,-6.26 -5.62,-10.13c2.46,-0.58 4.98,-0.92 7.51,-1.01Z" style="fill:rgb(236,201,26);fill-rule:nonzero;"/>
                <path id="path3371" d="M39.23,99.87c2.01,-0.5 3.14,1.53 4.1,2.9c5.88,9.71 11.44,20.62 10.76,32.24c-11.9,1.49 -26.32,-0.59 -34.45,-10.06c4.48,-9.67 14.14,-15.9 19.59,-25.08Z" style="fill:rgb(236,201,26);fill-rule:nonzero;"/>
            </g>
            <g id="_-b4b2a8ff" serif:id="#b4b2a8ff" transform="matrix(1.04591,0,0,0.994915,-6.98669,0.60714)">
                <path id="path3374" d="M54.15,98.72c6.05,-1.76 7.84,12.36 1.05,10.51c-3.39,-2.04 -3.71,-7.89 -1.05,-10.51Z" style="fill:white;fill-rule:nonzero;"/>
            </g>
            <path id="path3470" d="M5.292,94.457c-0.185,-11.459 0.389,-18.175 1.218,-25.635c0.593,-5.339 1.943,-14.298 2.313,-14.66c0.148,-0.145 4.518,-0.624 8.332,-0.54c8.885,0.196 14.778,1.514 23.192,4.266c5.367,1.756 18.833,8.558 18.496,8.879c-0,0 -3.278,-0.944 -4.498,-1.267c-1.221,-0.322 -5.444,-1.327 -6.957,-1.512c-3.809,-0.465 -6.349,0.012 -10.83,2.023c-10.779,4.836 -19.186,12.552 -24.815,23.62c-2.273,4.47 -3.336,6.838 -4.57,11.928l-1.655,6.829l-0.226,-13.931Z" style="fill:rgb(43,123,181);fill-rule:nonzero;"/>
            <path id="path3344" d="M109.87,0.529c-17.004,5.456 -41.685,32.396 -54.186,47.685c-1.495,1.432 -2.761,3.76 -4.999,4.039c-15.867,-5.933 -33.143,-7.191 -50.033,-7.716l0.112,131.496c21.075,4.078 52.682,3.46 63.44,-0.4c17.083,-5.602 39.518,-29.71 45.281,-52.054c3.096,-10.666 0.127,-21.778 -4.831,-31.449c10.192,-18.193 19.321,-48.728 19.63,-70.438c-0.32,-11.168 1.042,-21.129 -14.396,-21.163l-0.018,0Zm-8.032,16.35c4.024,-0.125 7.39,4.455 7.668,8.411c3.117,19.56 -0.9,39.908 -10.323,57.488c-5.617,-1.93 -9.842,-8.736 -15.271,-12.258c-3.901,-2.776 -7.875,-5.462 -11.881,-8.088c-4.497,-2.428 -8.9,-5.035 -12.916,-8.169c11.651,-13.183 23.962,-26.584 39.242,-36.055c1.176,-0.89 2.355,-1.294 3.481,-1.329Zm-86.63,37.429c14.573,0.067 29.034,4.722 41.993,11.63c9.463,5.218 18.846,11.377 25.948,19.357c-2.426,1.582 -5.449,-0.299 -8.106,-0.428c-20.332,-3.582 -40.654,7.023 -53.027,21.927c-5.962,5.482 -10.26,12.476 -16.766,17.411c0.043,2.252 0.325,-1.434 0.163,-5.183c0.578,-21.189 -1.29,-41.742 3.603,-64.481c2.042,-0.167 4.11,-0.243 6.192,-0.233Zm45.131,33.96c8.618,0.508 18.188,-0.376 25.802,4.061c1.245,10.665 -0.995,21.649 -5.21,31.539c-5.647,8.835 -17.665,10.386 -27.559,11.272c1.726,-11.889 6.652,-23.6 4.989,-35.788c-0.962,-3.85 -4.905,-6.227 -5.878,-10.078c2.573,-0.577 5.209,-0.916 7.856,-1.006Zm35.026,10.209c6.537,8.686 8.796,20.635 4.916,30.793c-4.037,12.088 -14.704,20.974 -24.087,29.947c-10.48,9.013 -8.555,7.438 -18.964,11.648c-17.58,3.278 -33.491,0.815 -49.235,-0.942c-2.161,-14.147 -0.36,-25.197 -2.493,-38.529l6.643,2.492c4.887,2.078 3.97,1.786 9.325,3.298c11.767,3.576 19.052,1.808 30.18,2.156c11.924,-1.741 25.151,-4.031 33.759,-13.005c7.301,-7.611 7.101,-18.496 9.956,-27.858Zm-44.583,0.198c5.393,0.093 6.623,12.332 -0.035,10.606c-3.545,-2.029 -3.88,-7.849 -1.098,-10.456c0.396,-0.109 0.773,-0.157 1.133,-0.15l-0,-0Zm-15.991,1.22c1.648,0.072 2.663,1.767 3.541,2.96c6.15,9.66 11.966,20.514 11.255,32.075c-12.446,1.482 -27.528,-0.586 -36.031,-10.008c4.685,-9.621 14.788,-15.819 20.488,-24.952c0.263,-0.063 0.511,-0.085 0.747,-0.075l-0,-0Z" style="fill-rule:nonzero;"/>
            <g id="path3488" transform="matrix(0.8,0,0,0.8,0,0)">
                <path d="M7.181,117.236c0.105,-16.518 0.235,-19.92 1.098,-28.729c0.686,-7.006 2.681,-19.701 3.173,-20.193c0.053,-0.052 2.076,-0.168 4.495,-0.257c13.14,-0.484 29,2.688 43.197,8.637c4.251,1.781 12.473,5.74 12.294,5.918c-0.068,0.069 -1.536,-0.245 -3.263,-0.697c-12.15,-3.177 -15.385,-2.947 -24.895,1.77c-6.535,3.241 -11.407,6.675 -16.306,11.494c-5.515,5.425 -8.907,10.202 -12.908,18.175c-2.954,5.888 -3.81,8.243 -5.687,15.647l-1.305,5.15l0.107,-16.915Z" style="fill:rgb(43,123,181);fill-rule:nonzero;"/>
            </g>
            <g id="path3490" transform="matrix(0.8,0,0,0.8,0,0)">
                <path d="M35.383,214.97c-2.511,-0.201 -9.235,-0.879 -14.942,-1.507l-10.377,-1.143l-0.301,-2.435c-0.68,-5.501 -0.86,-8.706 -1.234,-22.035c-0.349,-12.424 -0.528,-15.831 -1.067,-20.271l-0.146,-1.208l0.8,1.815c1.778,4.037 3.842,7.171 11.236,17.065c9.341,12.5 15.249,17.892 24.622,22.474c4.036,1.972 7.344,3.107 11.531,3.956c2.548,0.517 3.805,0.602 8.875,0.598c5.56,-0.004 6.057,-0.045 8.458,-0.714c5.053,-1.408 9.214,-3.566 16.24,-8.422c2.035,-1.407 3.75,-2.507 3.813,-2.444c0.131,0.131 -3.722,3.425 -6.6,5.642c-2.727,2.101 -4.502,3.031 -9.973,5.225c-4.973,1.995 -6.291,2.312 -13.146,3.154c-4.962,0.609 -21.453,0.758 -27.789,0.25Z" style="fill:rgb(43,123,181);fill-rule:nonzero;"/>
            </g>
            <g id="path3492" transform="matrix(0.8,0,0,0.8,0,0)">
                <path d="M121.704,102.291c-2.378,-1.358 -4.247,-2.912 -8.905,-7.41c-2.412,-2.329 -4.842,-4.582 -5.4,-5.006c-0.557,-0.425 -0.975,-0.811 -0.928,-0.858c0.047,-0.047 0.847,0.151 1.777,0.44c0.929,0.29 1.777,0.526 1.883,0.526c0.289,0 3.967,-4.34 6.27,-7.401c2.917,-3.876 7.152,-10.408 10.87,-16.763c7.042,-12.04 9.142,-15.753 9.491,-16.781c0.476,-1.403 0.475,-5.544 -0.001,-7.25c-0.901,-3.228 -2.835,-5.811 -5.219,-6.969c-1.357,-0.66 -1.412,-0.665 -3.256,-0.275c-7.806,1.649 -14.912,6.298 -22.116,14.469c-5.666,6.427 -14.936,18.464 -16.205,21.042c-1.062,2.157 -1.339,4.945 -0.655,6.583c0.229,0.547 0.372,0.995 0.318,0.995c-0.689,-0 -12.634,-7.452 -14.77,-9.214l-0.799,-0.66l2.138,-2.38c19.375,-21.563 30.66,-31.965 44.469,-40.99c4.157,-2.717 5.075,-3.141 6.803,-3.141c2.596,0 5.502,1.889 7.358,4.781c1.202,1.873 1.614,3.251 2.185,7.302c2.787,19.762 -0.118,40.643 -8.359,60.097c-2.19,5.169 -4.537,9.712 -5.016,9.709c-0.251,-0.001 -1.121,-0.382 -1.933,-0.846Z" style="fill:rgb(43,123,181);fill-rule:nonzero;"/>
            </g>
            <g id="path3494" transform="matrix(0.8,0,0,0.8,0,0)">
                <path d="M6.975,144.953l0.115,-9.996l1.322,-5.413c1.863,-7.621 2.606,-9.707 5.627,-15.799c3.953,-7.97 7.32,-12.799 12.615,-18.095c5.085,-5.085 9.971,-8.522 17.052,-11.998c6.021,-2.955 8.419,-3.658 12.485,-3.663c3.363,-0.004 5.439,0.361 12.533,2.205c3.851,1.001 4.293,1.188 8.055,3.389c9.194,5.381 16.912,11.091 22.989,17.009c3.602,3.507 3.941,3.915 3.513,4.228c-0.694,0.508 -3.484,0.426 -6.056,-0.177c-7.914,-1.857 -17.448,-1.958 -25.755,-0.274c-13.589,2.756 -27.293,10.183 -37.977,20.581c-3.099,3.016 -11.829,12.429 -15.893,17.135c-3.532,4.091 -7.256,7.942 -9.501,9.825l-1.239,1.039l0.115,-9.996Z" style="fill:rgb(93,154,198);fill-rule:nonzero;"/>
            </g>
            <g id="path3496" transform="matrix(0.8,0,0,0.8,0,0)">
                <path d="M56.325,211.733c-7.323,-1.339 -14.753,-4.705 -21.302,-9.651c-2.763,-2.086 -8.265,-7.55 -10.952,-10.875c-2.42,-2.995 -9.978,-13.207 -11.824,-15.976c-0.886,-1.329 -2.046,-3.202 -2.579,-4.162c-1.06,-1.912 -2.612,-5.63 -2.612,-6.259c0,-0.407 4.314,1.113 11.143,3.926c5.25,2.163 13.541,4.381 19.374,5.182c2.932,0.403 5.236,0.466 15.396,0.417c11.888,-0.057 11.973,-0.062 16.915,-0.869c17.835,-2.912 28.198,-7.1 35.805,-14.468c5.694,-5.514 8.075,-10.738 10.777,-23.639c1.232,-5.885 2.552,-11.587 2.729,-11.794c0.329,-0.384 3.806,5.56 5.158,8.816c6.509,15.685 3.23,31.528 -9.739,47.059c-2.914,3.49 -19.087,19.553 -19.687,19.553c-0.187,-0 -0.341,0.121 -0.341,0.268c0,0.148 -0.171,0.269 -0.38,0.269c-0.21,-0 -0.421,0.106 -0.47,0.236c-0.197,0.518 -11.546,7.773 -14.186,9.069c-2.781,1.365 -5.952,2.555 -7.786,2.923c-0.517,0.104 -3.719,0.229 -7.115,0.278c-4.591,0.067 -6.727,-0.011 -8.324,-0.303Z" style="fill:rgb(93,154,198);fill-rule:nonzero;"/>
            </g>
            <g id="path3498" transform="matrix(0.8,0,0,0.8,0,0)">
                <path d="M107.537,89.152c-1.083,-0.343 -2.805,-1.302 -4.833,-2.693c-1.733,-1.187 -5.292,-3.598 -7.909,-5.357c-2.992,-2.011 -4.901,-3.474 -5.143,-3.941c-1.013,-1.96 -0.671,-5.279 0.802,-7.793c1.583,-2.7 10.637,-14.339 15.335,-19.712c7.198,-8.232 14.007,-12.893 21.529,-14.738c3.043,-0.746 3.926,-0.543 6.037,1.387c2.649,2.421 3.821,5.698 3.593,10.048c-0.152,2.881 0.152,2.227 -5.924,12.753c-9.008,15.607 -13.624,22.564 -19.194,28.931c-1.646,1.881 -1.772,1.914 -4.293,1.115Z" style="fill:rgb(93,154,198);fill-rule:nonzero;"/>
            </g>
        </g>
        <g transform="matrix(13.5677,0,0,13.6964,-2922.23,-860.849)">
            <g transform="matrix(12,0,0,12,228.33,75.7294)">
                <path d="M0.421,-0.167l0.091,0.011c-0.015,0.053 -0.041,0.094 -0.08,0.124c-0.039,0.029 -0.088,0.044 -0.148,0.044c-0.076,-0 -0.136,-0.024 -0.181,-0.07c-0.044,-0.047 -0.066,-0.113 -0.066,-0.197c-0,-0.087 0.022,-0.155 0.067,-0.203c0.045,-0.048 0.103,-0.072 0.175,-0.072c0.069,-0 0.126,0.023 0.17,0.071c0.044,0.047 0.066,0.113 0.066,0.199c-0,0.005 -0.001,0.013 -0.001,0.023l-0.387,0c0.004,0.057 0.02,0.101 0.049,0.131c0.029,0.03 0.065,0.045 0.108,0.045c0.032,0 0.06,-0.008 0.083,-0.025c0.022,-0.017 0.041,-0.044 0.054,-0.081Zm-0.289,-0.142l0.29,-0c-0.004,-0.044 -0.015,-0.076 -0.033,-0.098c-0.028,-0.034 -0.065,-0.051 -0.109,-0.051c-0.041,-0 -0.075,0.014 -0.102,0.041c-0.028,0.027 -0.043,0.063 -0.046,0.108Z" style="fill-rule:nonzero;"/>
            </g>
            <g transform="matrix(12,0,0,12,235.004,75.7294)">
                <path d="M0.404,-0.19l0.087,0.011c-0.01,0.06 -0.034,0.106 -0.073,0.14c-0.039,0.034 -0.086,0.051 -0.143,0.051c-0.071,-0 -0.128,-0.023 -0.171,-0.07c-0.043,-0.046 -0.065,-0.113 -0.065,-0.199c0,-0.056 0.009,-0.105 0.028,-0.147c0.018,-0.042 0.047,-0.074 0.085,-0.095c0.038,-0.021 0.079,-0.031 0.123,-0.031c0.057,-0 0.103,0.014 0.139,0.042c0.035,0.029 0.058,0.069 0.068,0.122l-0.085,0.013c-0.008,-0.035 -0.023,-0.061 -0.043,-0.079c-0.021,-0.017 -0.046,-0.026 -0.075,-0.026c-0.044,-0 -0.08,0.016 -0.108,0.048c-0.028,0.031 -0.042,0.082 -0.042,0.15c0,0.07 0.014,0.121 0.04,0.152c0.027,0.032 0.062,0.047 0.105,0.047c0.034,0 0.063,-0.01 0.086,-0.031c0.023,-0.021 0.038,-0.054 0.044,-0.098Z" style="fill-rule:nonzero;"/>
            </g>
            <g transform="matrix(12,0,0,12,241.004,75.7294)">
                <path d="M0.066,-0l-0,-0.716l0.088,0l-0,0.257c0.041,-0.048 0.093,-0.071 0.155,-0.071c0.038,-0 0.072,0.007 0.1,0.022c0.028,0.016 0.049,0.036 0.061,0.063c0.012,0.027 0.018,0.066 0.018,0.116l0,0.329l-0.088,-0l0,-0.329c0,-0.044 -0.009,-0.076 -0.028,-0.096c-0.019,-0.02 -0.046,-0.03 -0.081,-0.03c-0.026,0 -0.051,0.007 -0.073,0.021c-0.023,0.013 -0.04,0.031 -0.05,0.055c-0.009,0.023 -0.014,0.055 -0.014,0.095l-0,0.284l-0.088,-0Z" style="fill-rule:nonzero;"/>
            </g>
            <g transform="matrix(12,0,0,12,247.677,75.7294)">
                <path d="M0.033,-0.259c0,-0.096 0.027,-0.167 0.08,-0.214c0.045,-0.038 0.099,-0.057 0.163,-0.057c0.072,-0 0.13,0.023 0.175,0.07c0.045,0.047 0.068,0.111 0.068,0.193c0,0.067 -0.01,0.12 -0.03,0.158c-0.02,0.038 -0.049,0.068 -0.087,0.089c-0.039,0.021 -0.08,0.032 -0.126,0.032c-0.072,-0 -0.131,-0.024 -0.176,-0.07c-0.044,-0.047 -0.067,-0.114 -0.067,-0.201Zm0.091,-0c-0,0.066 0.014,0.116 0.043,0.149c0.029,0.033 0.065,0.049 0.109,0.049c0.044,0 0.08,-0.016 0.109,-0.049c0.029,-0.034 0.044,-0.084 0.044,-0.152c-0,-0.064 -0.015,-0.113 -0.044,-0.146c-0.029,-0.033 -0.065,-0.05 -0.109,-0.05c-0.044,0 -0.08,0.017 -0.109,0.05c-0.029,0.033 -0.043,0.082 -0.043,0.149Z" style="fill-rule:nonzero;"/>
            </g>
            <g transform="matrix(12,0,0,12,254.351,75.7294)">
                <path d="M0.404,-0.19l0.087,0.011c-0.01,0.06 -0.034,0.106 -0.073,0.14c-0.039,0.034 -0.086,0.051 -0.143,0.051c-0.071,-0 -0.128,-0.023 -0.171,-0.07c-0.043,-0.046 -0.065,-0.113 -0.065,-0.199c0,-0.056 0.009,-0.105 0.028,-0.147c0.018,-0.042 0.047,-0.074 0.085,-0.095c0.038,-0.021 0.079,-0.031 0.123,-0.031c0.057,-0 0.103,0.014 0.139,0.042c0.035,0.029 0.058,0.069 0.068,0.122l-0.085,0.013c-0.008,-0.035 -0.023,-0.061 -0.043,-0.079c-0.021,-0.017 -0.046,-0.026 -0.075,-0.026c-0.044,-0 -0.08,0.016 -0.108,0.048c-0.028,0.031 -0.042,0.082 -0.042,0.15c0,0.07 0.014,0.121 0.04,0.152c0.027,0.032 0.062,0.047 0.105,0.047c0.034,0 0.063,-0.01 0.086,-0.031c0.023,-0.021 0.038,-0.054 0.044,-0.098Z" style="fill-rule:nonzero;"/>
            </g>
            <g transform="matrix(12,0,0,12,260.351,75.7294)">
                <path d="M0.404,-0.064c-0.032,0.028 -0.064,0.047 -0.094,0.059c-0.03,0.011 -0.062,0.017 -0.097,0.017c-0.057,-0 -0.1,-0.014 -0.131,-0.042c-0.031,-0.028 -0.046,-0.063 -0.046,-0.107c0,-0.025 0.006,-0.048 0.017,-0.069c0.012,-0.021 0.027,-0.038 0.046,-0.051c0.019,-0.013 0.04,-0.022 0.063,-0.029c0.017,-0.004 0.043,-0.009 0.078,-0.013c0.071,-0.008 0.123,-0.018 0.157,-0.03c0,-0.012 0,-0.02 0,-0.023c0,-0.036 -0.008,-0.061 -0.024,-0.076c-0.023,-0.02 -0.056,-0.03 -0.101,-0.03c-0.041,0 -0.071,0.008 -0.091,0.022c-0.02,0.015 -0.034,0.04 -0.044,0.077l-0.086,-0.012c0.008,-0.036 0.021,-0.066 0.039,-0.089c0.018,-0.022 0.044,-0.04 0.077,-0.052c0.034,-0.012 0.074,-0.018 0.118,-0.018c0.044,-0 0.08,0.005 0.108,0.015c0.028,0.011 0.048,0.024 0.061,0.04c0.013,0.015 0.022,0.035 0.027,0.059c0.003,0.015 0.005,0.042 0.005,0.082l-0,0.117c-0,0.081 0.002,0.133 0.005,0.155c0.004,0.021 0.012,0.042 0.023,0.062l-0.092,0c-0.009,-0.018 -0.015,-0.04 -0.018,-0.064Zm-0.007,-0.196c-0.032,0.013 -0.08,0.024 -0.144,0.033c-0.036,0.005 -0.061,0.011 -0.076,0.018c-0.015,0.006 -0.027,0.016 -0.035,0.028c-0.008,0.013 -0.012,0.027 -0.012,0.042c-0,0.023 0.009,0.043 0.026,0.058c0.018,0.016 0.044,0.024 0.078,0.024c0.034,-0 0.064,-0.008 0.091,-0.022c0.026,-0.015 0.045,-0.035 0.058,-0.061c0.009,-0.02 0.014,-0.049 0.014,-0.088l-0,-0.032Z" style="fill-rule:nonzero;"/>
            </g>
            <g transform="matrix(12,0,0,12,267.025,75.7294)">
                <path d="M0.258,-0.079l0.013,0.078c-0.025,0.005 -0.047,0.008 -0.067,0.008c-0.032,-0 -0.057,-0.005 -0.074,-0.015c-0.018,-0.01 -0.03,-0.024 -0.037,-0.04c-0.007,-0.017 -0.011,-0.051 -0.011,-0.104l0,-0.298l-0.064,-0l-0,-0.069l0.064,0l0,-0.128l0.087,-0.053l0,0.181l0.089,0l-0,0.069l-0.089,-0l0,0.303c0,0.025 0.002,0.041 0.005,0.048c0.003,0.008 0.008,0.013 0.015,0.017c0.007,0.005 0.017,0.007 0.03,0.007c0.01,-0 0.023,-0.001 0.039,-0.004Z" style="fill-rule:nonzero;"/>
            </g>
        </g>
    </g>
</svg>
